<svg width="44" height="40" viewBox="0 0 44 40" fill="none" xmlns="http://www.w3.org/2000/svg">
<path d="M32.4866 7.9882e-07H11.5214C9.91153 -2.34356e-05 8.58276 -4.34369e-05 7.50039 0.08839C6.37619 0.18024 5.34278 0.377369 4.37211 0.87195C2.86682 1.63894 1.64297 2.86278 0.875984 4.36808C0.381402 5.33875 0.184274 6.37216 0.0924233 7.49635C0.0569775 7.93019 0.0346556 8.36496 0.0208271 8.80021C-0.0136185 9.8844 -0.0308413 10.4265 0.18196 10.8681C0.365294 11.2486 0.684319 11.578 1.0588 11.7733C1.49347 12 2.06366 12 3.20403 12H40.804C41.9444 12 42.5146 12 42.9493 11.7733C43.3237 11.578 43.6428 11.2486 43.8261 10.8681C44.0389 10.4265 44.0217 9.88441 43.9872 8.80024C43.9734 8.36499 43.9511 7.93019 43.9156 7.49635C43.8238 6.37216 43.6267 5.33875 43.1321 4.36808C42.3651 2.86279 41.1413 1.63894 39.636 0.871954C38.6653 0.377373 37.6319 0.180244 36.5077 0.0883934C35.4253 -3.8214e-05 34.0965 -2.05755e-05 32.4866 7.9882e-07Z" fill="white"/>
<path fill-rule="evenodd" clip-rule="evenodd" d="M44.004 19.1999C44.004 18.0799 44.004 17.5198 43.786 17.092C43.5943 16.7157 43.2883 16.4097 42.912 16.218C42.4842 16 41.9241 16 40.804 16H3.20403C2.08393 16 1.52388 16 1.09605 16.218C0.719729 16.4097 0.413768 16.7157 0.222021 17.092C0.00403395 17.5198 0.00403395 18.0799 0.00403395 19.2V28.4826C0.004009 30.0925 0.00398842 31.4213 0.0924228 32.5036C0.184273 33.6278 0.381402 34.6612 0.875983 35.6319C1.64297 37.1372 2.86681 38.3611 4.37211 39.128C5.34278 39.6226 6.37619 39.8198 7.50038 39.9116C8.5828 40 9.91157 40 11.5216 40L32.4865 40C34.0965 40 35.4253 40 36.5077 39.9116C37.6319 39.8198 38.6653 39.6226 39.636 39.1281C41.1413 38.3611 42.3651 37.1372 43.1321 35.6319C43.6267 34.6613 43.8238 33.6278 43.9156 32.5037C44.0041 31.4213 44.0041 30.0926 44.004 28.4826V19.1999ZM24.5898 20.5858C25.3709 19.8047 26.6372 19.8047 27.4182 20.5858L32.4182 25.5858C33.1993 26.3668 33.1993 27.6332 32.4182 28.4142L27.4182 33.4142C26.6372 34.1953 25.3709 34.1953 24.5898 33.4142C23.8088 32.6332 23.8088 31.3668 24.5898 30.5858L28.1756 27L24.5898 23.4142C23.8088 22.6332 23.8088 21.3668 24.5898 20.5858ZM19.4182 23.4142C20.1993 22.6332 20.1993 21.3668 19.4182 20.5858C18.6372 19.8047 17.3709 19.8047 16.5898 20.5858L11.5898 25.5858C10.8088 26.3668 10.8088 27.6332 11.5898 28.4142L16.5898 33.4142C17.3709 34.1953 18.6372 34.1953 19.4182 33.4142C20.1993 32.6332 20.1993 31.3668 19.4182 30.5858L15.8325 27L19.4182 23.4142Z" fill="white"/>
</svg>
