<svg width="826" height="519" viewBox="0 0 826 519" fill="none" xmlns="http://www.w3.org/2000/svg">
<path opacity="0.05" d="M250.6 253.05H20.65V5.94979H242.55V58.4498H92.75V100.45H231.35V152.25H92.75V200.55H250.6V253.05ZM270.599 253.05V5.94979H373.149C425.649 5.94979 454.699 9.44979 477.449 19.2498C515.599 35.6998 537.999 75.5998 537.999 127.4C537.999 181.3 513.149 228.2 461.699 243.6C438.949 250.6 414.799 253.05 369.649 253.05H270.599ZM344.449 199.15H371.049C394.149 199.15 415.149 198.1 429.149 191.45C452.599 180.25 462.749 158.2 462.749 126.7C462.749 99.7498 454.699 81.1998 436.149 69.6498C423.549 61.9498 404.999 59.8498 377.349 59.8498H344.449V199.15ZM811.139 5.94979V146.3C811.139 184.8 804.839 211.75 783.839 229.95C762.139 248.85 727.489 259 683.039 259C639.639 259 603.589 249.55 583.989 229.6C562.989 208.25 559.139 182 559.139 145.95V5.94979H629.839V146.3C629.839 163.8 630.889 174.65 637.189 184.8C645.589 197.75 663.789 204.05 684.789 204.05C706.839 204.05 724.339 198.1 733.089 184.45C739.389 174.65 740.789 162.05 740.789 146.3V5.94979H811.139ZM1105.17 179.2C1088.02 227.85 1045.32 259 975.666 259C888.166 259 832.166 212.8 832.166 128.1C832.166 46.1998 888.516 -0.000212669 978.466 -0.000212669C1045.32 -0.000212669 1088.72 32.8998 1101.32 75.9498L1033.77 91.6998C1027.12 70.3498 1008.92 55.2998 977.416 55.2998C937.516 55.2998 907.066 78.3998 907.066 127.75C907.066 182 936.466 204.05 978.466 204.05C1006.47 204.05 1028.52 191.8 1034.47 164.15L1105.17 179.2ZM78.4 513.05H0L114.1 265.95H200.9L309.4 513.05H229.6L209.65 466.85H98.35L78.4 513.05ZM115.85 417.5H192.5C171.5 367.45 163.45 346.1 155.05 323C145.95 347.15 138.25 367.1 115.85 417.5ZM415.417 513.05H341.567V318.45H260.017V265.95H496.617V318.45H415.417V513.05ZM587.229 513.05H513.029V265.95H587.229V513.05ZM905.748 389.85C905.748 477.7 843.448 519 760.498 519C665.998 519 609.998 470.7 609.998 388.8C609.998 309 667.048 260 759.448 260C854.648 260 905.748 310.75 905.748 389.85ZM830.148 388.8C830.148 339.8 801.098 316.7 758.398 316.7C714.998 316.7 684.898 340.85 684.898 388.1C684.898 437.8 716.398 462.65 759.448 462.65C800.398 462.65 830.148 440.95 830.148 388.8ZM1000.27 513.05H927.82V265.95H1010.42C1092.67 369.2 1111.22 396.85 1126.27 423.8C1125.22 394.4 1124.52 368.15 1124.52 265.95H1197.32V513.05H1116.82C1037.02 411.9 1020.57 387.05 999.22 354.85C999.92 378.3 1000.27 408.05 1000.27 513.05Z" fill="url(#paint0_linear_15_4968)"/>
<defs>
<linearGradient id="paint0_linear_15_4968" x1="659" y1="293.116" x2="659" y2="614.216" gradientUnits="userSpaceOnUse">
<stop/>
<stop offset="1" stop-color="#666666" stop-opacity="0"/>
</linearGradient>
</defs>
</svg>
