<svg width="1094" height="495" viewBox="0 0 1094 495" fill="none" xmlns="http://www.w3.org/2000/svg">
<path opacity="0.05" d="M71.8738 229.45H-141.651V0.000185549H64.3988V48.7502H-74.7012V87.7502H53.9988V135.85H-74.7012V180.7H71.8738V229.45ZM151.545 229.45H72.5695L161.945 109.85L80.0445 0.000185549H161.295C190.22 41.2752 201.27 57.2002 209.395 69.5502C217.52 57.2002 225.32 45.8252 257.17 0.000185549H335.82L250.67 110.5L343.295 229.45H260.095C222.07 178.425 212.645 165.75 204.52 154.375C196.72 165.425 187.945 178.425 151.545 229.45ZM422.536 229.45H353.961V0.000185549H464.461C519.711 0.000185549 540.186 3.57518 556.111 10.0752C580.486 20.4752 594.786 42.9002 594.786 73.1252C594.786 100.1 582.436 124.475 557.736 136.5C539.211 145.275 514.511 149.175 478.761 149.175H422.536V229.45ZM422.536 101.075H471.936C489.811 101.075 501.511 100.75 509.961 97.1752C520.361 93.2752 524.261 84.8252 524.261 74.4252C524.261 66.6252 520.686 59.1502 514.511 54.9252C506.061 49.4002 495.011 48.7502 473.561 48.7502H422.536V101.075ZM827.829 229.45H614.304V0.000185549H820.354V48.7502H681.254V87.7502H809.954V135.85H681.254V180.7H827.829V229.45ZM914.65 229.45H846.4V0.000185549H965.675C996.55 0.000185549 1025.47 1.30019 1042.7 8.45019C1067.4 18.5252 1083.32 39.6502 1083.32 69.8752C1083.32 91.0002 1075.2 109.85 1059.27 121.55C1049.52 128.7 1036.85 134.225 1022.22 138.125L1093.72 229.45H1015.07L954.3 145.6H914.65V229.45ZM914.65 97.1752H967.3C981.6 97.1752 992.975 96.8502 1000.45 93.6002C1008.9 90.0252 1013.12 83.2002 1013.12 72.1502C1013.12 62.7252 1009.55 55.5752 999.8 52.0002C991.35 48.7502 979.325 48.7502 966 48.7502H914.65V97.1752ZM73.8797 489.45H4.97969V260H73.8797V489.45ZM316.347 489.45H102.822V260H308.872V308.75H169.772V347.75H298.472V395.85H169.772V440.7H316.347V489.45ZM402.193 489.45H334.918V260H411.618C487.993 355.875 505.218 381.55 519.193 406.575C518.218 379.275 517.568 354.9 517.568 260H585.168V489.45H510.418C436.318 395.525 421.043 372.45 401.218 342.55C401.868 364.325 402.193 391.95 402.193 489.45ZM859.369 420.875C843.444 466.05 803.794 494.975 739.119 494.975C657.869 494.975 605.869 452.075 605.869 373.425C605.869 297.375 658.194 254.475 741.719 254.475C803.794 254.475 844.094 285.025 855.794 325L793.069 339.625C786.894 319.8 769.994 305.825 740.744 305.825C703.694 305.825 675.419 327.275 675.419 373.1C675.419 423.475 702.719 443.95 741.719 443.95C767.719 443.95 788.194 432.575 793.719 406.9L859.369 420.875ZM1087.85 489.45H874.329V260H1080.38V308.75H941.279V347.75H1069.98V395.85H941.279V440.7H1087.85V489.45Z" fill="url(#paint0_linear_21_5179)"/>
<defs>
<linearGradient id="paint0_linear_21_5179" x1="461" y1="278.517" x2="461" y2="599.617" gradientUnits="userSpaceOnUse">
<stop/>
<stop offset="1" stop-color="#666666" stop-opacity="0"/>
</linearGradient>
</defs>
</svg>
