<svg width="40" height="40" viewBox="0 0 40 40" fill="none" xmlns="http://www.w3.org/2000/svg">
<path d="M19.6816 15.6797C17.4725 15.6797 15.6816 17.4705 15.6816 19.6797C15.6816 21.8888 17.4725 23.6797 19.6816 23.6797C21.8908 23.6797 23.6816 21.8888 23.6816 19.6797C23.6816 17.4705 21.8908 15.6797 19.6816 15.6797Z" fill="black"/>
<path fill-rule="evenodd" clip-rule="evenodd" d="M0.804402 15.2855C1.23138 16.7372 1.82336 18.2257 2.56855 19.7213C1.06911 22.731 0.166043 25.7597 0.0206023 28.5439C-0.140368 31.6254 0.629996 34.5691 2.75266 36.6917C5.85593 39.795 10.6407 40.0066 15.2876 38.6399C16.7392 38.213 18.2276 37.621 19.7232 36.8759C21.2187 37.621 22.7072 38.213 24.1588 38.6399C28.8057 40.0066 33.5904 39.795 36.6937 36.6917C39.797 33.5885 40.0086 28.8037 38.6419 24.1568C38.2149 22.7052 37.623 21.2168 36.8778 19.7212C38.4348 16.596 39.3527 13.4418 39.4398 10.5601C39.5291 7.60373 38.7379 4.79478 36.6938 2.75062C33.5905 -0.352658 28.8058 -0.564282 24.1589 0.802449C22.7072 1.22941 21.2188 1.82137 19.7232 2.56654C18.2276 1.82137 16.7391 1.22941 15.2875 0.802449C10.6406 -0.564282 5.85585 -0.352658 2.75257 2.75062C-0.350705 5.85389 -0.562329 10.6386 0.804402 15.2855ZM14.1588 4.63991C10.1043 3.44742 7.16401 3.99603 5.581 5.57904C3.99798 7.16206 3.44937 10.1024 4.64186 14.1568C5.81005 18.1287 8.54629 22.6865 12.6521 26.7922C14.9291 29.0693 17.3451 30.9251 19.7232 32.3258C22.1012 30.9251 24.5173 29.0693 26.7943 26.7922C27.3596 26.227 27.8997 25.6522 28.414 25.0708C29.1458 24.2434 30.4097 24.1659 31.2371 24.8977C32.0645 25.6294 32.142 26.8934 31.4102 27.7208C30.8417 28.3636 30.2456 28.9978 29.6227 29.6207C27.8156 31.4278 25.9056 33.0169 23.9596 34.3613C24.4084 34.5271 24.8515 34.6742 25.2875 34.8024C29.3419 35.9949 32.2823 35.4463 33.8653 33.8633C35.4483 32.2803 35.9969 29.34 34.8044 25.2855C33.6362 21.3137 30.9 16.7559 26.7942 12.6501C24.5172 10.3731 22.1012 8.51734 19.7232 7.11664C17.3452 8.51734 14.9291 10.3731 12.6522 12.6501C12.0612 13.241 11.4978 13.8423 10.9626 14.4508C10.2331 15.2802 8.9694 15.3612 8.13998 14.6317C7.31055 13.9023 7.22953 12.6385 7.959 11.8091C8.55068 11.1363 9.17258 10.4728 9.82372 9.82169C11.6308 8.01459 13.5408 6.4255 15.4868 5.0811C15.038 4.91531 14.5949 4.76816 14.1588 4.63991ZM9.82364 29.6207C11.6308 31.4278 13.5408 33.0169 15.4867 34.3613C15.038 34.5271 14.5949 34.6742 14.1589 34.8024C10.1044 35.9949 7.1641 35.4463 5.58108 33.8633C4.49094 32.7732 3.8938 31.0758 4.01516 28.7526C4.09059 27.3086 4.44482 25.6857 5.08306 23.9576C6.42746 25.9036 8.01654 27.8136 9.82364 29.6207ZM35.4416 10.4393C35.3962 11.9425 35.04 13.653 34.3633 15.4849C33.0189 13.5389 31.4298 11.6288 29.6226 9.82168C27.8155 8.01459 25.9055 6.4255 23.9596 5.0811C24.4084 4.91531 24.8515 4.76816 25.2876 4.63991C29.342 3.44742 32.2823 3.99603 33.8654 5.57904C34.9167 6.63039 35.508 8.24281 35.4416 10.4393Z" fill="black"/>
</svg>
