<svg width="939" height="469" viewBox="0 0 939 469" fill="none" xmlns="http://www.w3.org/2000/svg">
<path opacity="0.05" d="M-39 209H-102V-41.25H15.95C71.6 -41.25 105.2 -15.35 105.2 30.15C105.2 65.15 85.6 85.8 54.45 92.8V93.5C117.1 104.35 94.35 201.3 108.7 205.5V209H43.25C31 198.5 53.75 121.85 0.20001 121.85H-39V209ZM-39 70.4H3.70001C28.9 70.4 42.2 61.3 42.2 40.3C42.2 19.3 28.9 10.2 3.70001 10.2H-39V70.4ZM173.267 209H105.717L200.917 -41.25H264.267L360.167 209H291.217L275.117 156.85H189.367L173.267 209ZM232.067 16.5L203.717 108.9H261.117L232.767 16.5H232.067ZM463.534 214.6C387.934 214.6 358.884 181 358.884 118.7V-41.25H421.884V118.7C421.884 151.25 435.884 163.15 463.534 163.15C491.184 163.15 505.184 151.25 505.184 118.7V-41.25H568.184V118.7C568.184 181 539.134 214.6 463.534 214.6ZM771.904 209H597.604V-41.25H660.604V157.55H771.904V209ZM-42.5 469H-102V218.75H-25L26.45 378.35H27.15L78.6 218.75H155.6V469H96.1V313.25H95.4L48.85 469H4.75L-41.8 313.25H-42.5V469ZM232.056 469H164.506L259.706 218.75H323.056L418.956 469H350.006L333.906 416.85H248.156L232.056 469ZM290.856 276.5L262.506 368.9H319.906L291.556 276.5H290.856ZM601.593 469H427.293V218.75H490.293V417.55H601.593V469ZM680.428 469H617.428V218.75H680.428V469ZM939.009 469H865.509L800.759 371.35L774.859 401.45V469H711.859V218.75H774.859V325.5L864.459 218.75H932.009L837.859 328.3L939.009 469Z" fill="url(#paint0_linear_15_789)"/>
<defs>
<linearGradient id="paint0_linear_15_789" x1="571" y1="246.067" x2="571" y2="567.167" gradientUnits="userSpaceOnUse">
<stop/>
<stop offset="1" stop-color="#666666" stop-opacity="0"/>
</linearGradient>
</defs>
</svg>
