<svg width="36" height="44" viewBox="0 0 36 44" fill="none" xmlns="http://www.w3.org/2000/svg">
<path d="M20.0005 12.864L14.0005 18.864L22.0005 22.864L16.0005 28.864M34.0005 21.864C34.0005 31.6809 23.2926 38.8208 19.3965 41.0938C18.9537 41.3521 18.7323 41.4812 18.4198 41.5482C18.1774 41.6002 17.8236 41.6002 17.5811 41.5482C17.2687 41.4812 17.0473 41.3521 16.6045 41.0938C12.7084 38.8208 2.00049 31.6809 2.00049 21.864V12.2992C2.00049 10.7002 2.00049 9.90067 2.26201 9.21341C2.49304 8.60628 2.86845 8.06455 3.3558 7.63506C3.90748 7.14888 4.65609 6.86815 6.1533 6.3067L16.8769 2.28535C17.2927 2.12943 17.5006 2.05146 17.7145 2.02056C17.9042 1.99315 18.0968 1.99315 18.2865 2.02056C18.5004 2.05146 18.7083 2.12943 19.1241 2.28535L29.8477 6.3067C31.3449 6.86815 32.0935 7.14888 32.6452 7.63506C33.1325 8.06455 33.5079 8.60628 33.739 9.21341C34.0005 9.90067 34.0005 10.7002 34.0005 12.2992V21.864Z" stroke="black" stroke-width="4" stroke-linecap="round" stroke-linejoin="round"/>
</svg>
