<svg width="651" height="522" viewBox="0 0 651 522" fill="none" xmlns="http://www.w3.org/2000/svg">
<path opacity="0.05" d="M114.8 261.45C49.35 261.45 4.95464e-07 228.2 4.95464e-07 170.8H63.7C63.7 199.85 85.75 210.7 114.1 210.7C137.55 210.7 149.45 201.25 149.45 188.3C149.45 166.95 124.6 161.35 89.95 150.85C46.55 137.55 7.7 120.75 7.7 75.9501C7.7 21.3501 50.4 9.54866e-05 104.3 9.54866e-05C162.75 9.54866e-05 208.6 30.8001 210.35 81.5501H146.65C143.85 62.3001 128.45 50.7501 104.3 50.7501C85.4 50.7501 72.1 57.0501 72.1 71.4001C72.1 88.2001 86.1 93.8001 117.95 103.25C165.2 117.25 213.85 130.55 213.85 182.35C213.85 230.3 177.45 261.45 114.8 261.45ZM425.329 255.85H233.529V5.60009H423.229V57.0501H296.529V101.5H405.729V152.95H296.529V204.4H425.329V255.85ZM510.59 255.85H447.59V5.60009H565.54C621.19 5.60009 654.79 31.5001 654.79 77.0001C654.79 112 635.19 132.65 604.04 139.65V140.35C666.69 151.2 643.94 248.15 658.29 252.35V255.85H592.84C580.59 245.35 603.34 168.7 549.79 168.7H510.59V255.85ZM510.59 117.25H553.29C578.49 117.25 591.79 108.15 591.79 87.1501C591.79 66.1501 578.49 57.0501 553.29 57.0501H510.59V117.25ZM801.754 255.85H735.254L651.954 5.60009H720.904L768.154 180.95H768.854L816.454 5.60009H882.954L801.754 255.85ZM958.535 255.85H895.535V5.60009H958.535V255.85ZM123.2 521.45C43.75 521.45 3.5 466.15 3.5 391.6C3.5 314.95 45.85 260 124.95 260C193.2 260 229.6 300.6 235.55 358.7H171.15C166.6 331.4 155.4 311.45 122.15 311.45C80.5 311.45 67.9 343.65 67.9 390.55C67.9 437.8 80.5 470 122.15 470C155.75 470 166.95 450.05 171.15 422.05H235.55C229.95 479.45 192.15 521.45 123.2 521.45ZM445.495 515.85H253.695V265.6H443.395V317.05H316.695V361.5H425.895V412.95H316.695V464.4H445.495V515.85ZM568.556 521.45C503.106 521.45 453.756 488.2 453.756 430.8H517.456C517.456 459.85 539.506 470.7 567.856 470.7C591.306 470.7 603.206 461.25 603.206 448.3C603.206 426.95 578.356 421.35 543.706 410.85C500.306 397.55 461.456 380.75 461.456 335.95C461.456 281.35 504.156 260 558.056 260C616.506 260 662.356 290.8 664.106 341.55H600.406C597.606 322.3 582.206 310.75 558.056 310.75C539.156 310.75 525.856 317.05 525.856 331.4C525.856 348.2 539.856 353.8 571.706 363.25C618.956 377.25 667.606 390.55 667.606 442.35C667.606 490.3 631.206 521.45 568.556 521.45Z" fill="url(#paint0_linear_15_873)"/>
<defs>
<linearGradient id="paint0_linear_15_873" x1="530" y1="292.917" x2="530" y2="614.017" gradientUnits="userSpaceOnUse">
<stop/>
<stop offset="1" stop-color="#666666" stop-opacity="0"/>
</linearGradient>
</defs>
</svg>
